{
    "accessors": [{
            "bufferView": 0,
            "componentType": 5126,
            "count": 121,
            "max": [
                70,
                70,
                66.57395935058594
            ],
            "min": [
                -70,
                -70,
                -66.57395935058594
            ],
            "type": "VEC3"
        },
        {
            "bufferView": 1,
            "componentType": 5126,
            "count": 121,
            "max": [
                1,
                1,
                0.9510565400123596
            ],
            "min": [
                -1,
                -1,
                -0.9510565400123596
            ],
            "type": "VEC3"
        },
        {
            "bufferView": 2,
            "componentType": 5126,
            "count": 121,
            "max": [
                1.0499999523162842,
                1
            ],
            "min": [
                -0.05000000074505806,
                0
            ],
            "type": "VEC2"
        },
        {
            "bufferView": 3,
            "componentType": 5123,
            "count": 540,
            "max": [
                120
            ],
            "min": [
                0
            ],
            "type": "SCALAR"
        }
    ],
    "asset": {
        "version": "2.0",
        "generator": "GLTFExporter"
    },
    "bufferViews": [{
            "buffer": 0,
            "byteOffset": 0,
            "byteLength": 1452,
            "target": 34962,
            "byteStride": 12
        },
        {
            "buffer": 0,
            "byteOffset": 1452,
            "byteLength": 1452,
            "target": 34962,
            "byteStride": 12
        },
        {
            "buffer": 0,
            "byteOffset": 2904,
            "byteLength": 968,
            "target": 34962,
            "byteStride": 8
        },
        {
            "buffer": 0,
            "byteOffset": 3872,
            "byteLength": 1080,
            "target": 34963
        }
    ],
    "buffers": [{
        "byteLength": 4952,
        "uri": "data:application/octet-stream;base64,"
    }],
    "materials": [{
        "pbrMetallicRoughness": {
            "baseColorFactor": [
                1,
                1,
                0,
                1
            ],
            "metallicFactor": 0.5,
            "roughnessFactor": 1
        }
    }],
    "meshes": [{
        "primitives": [{
            "mode": 4,
            "attributes": {
                "POSITION": 0,
                "NORMAL": 1,
                "TEXCOORD_0": 2
            },
            "indices": 3,
            "material": 0
        }]
    }],
    "nodes": [{
            "name": "Camera",
            "rotation": [
                0.483536034822464,
                0.33687159419059753,
                -0.20870360732078552,
                0.7804827094078064
            ],
            "translation": [
                7.481131553649902,
                5.34366512298584,
                6.5076398849487305
            ]
        },
        {
            "name": "Lamp",
            "rotation": [
                0.16907575726509094,
                0.7558802962303162,
                -0.27217137813568115,
                0.570947527885437
            ],
            "scale": [
                1.0,
                1.0,
                0.9999999403953552
            ],
            "translation": [
                0.0,
                1.600000023841858,
                -0.0
            ]
        },
        {
            "mesh": 0,
            "name": "model",
            "rotation": [
                0.7071068286895752,
                0.0,
                -0.0,
                0.7071067094802856
            ],
            "scale": [
                0.1,
                0.1,
                0.1
            ],
            "translation": [
                0.0,
                0.40995919704437256,
                -20.333168029785156
            ]
        }
    ],
    "scene": 0,
    "scenes": [{
        "name": "Scene",
        "nodes": [
            2,
            1,
            0
        ]
    }]
}